<svg width="18" height="18" viewBox="0 0 18 18" fill="none" xmlns="http://www.w3.org/2000/svg">
<path d="M8.35946 5.26688C8.64446 4.75563 8.78696 4.5 9 4.5C9.21304 4.5 9.35554 4.75563 9.64054 5.26688L9.71427 5.39915C9.79526 5.54444 9.83575 5.61708 9.89889 5.66501C9.96203 5.71294 10.0407 5.73073 10.1979 5.76631L10.3411 5.79871C10.8945 5.92392 11.1712 5.98653 11.2371 6.19824C11.3029 6.40994 11.1143 6.63054 10.737 7.07173L10.6394 7.18587C10.5322 7.31125 10.4785 7.37393 10.4544 7.45149C10.4303 7.52904 10.4384 7.61268 10.4546 7.77995L10.4694 7.93224C10.5264 8.52088 10.5549 8.81521 10.3826 8.94605C10.2102 9.07689 9.95115 8.9576 9.43297 8.71901L9.29892 8.65729C9.15167 8.58949 9.07804 8.55559 9 8.55559C8.92196 8.55559 8.84833 8.58949 8.70108 8.65729L8.56703 8.71901C8.04885 8.9576 7.78976 9.07689 7.61741 8.94605C7.44505 8.81521 7.47357 8.52089 7.53061 7.93224L7.54537 7.77995C7.56158 7.61268 7.56969 7.52904 7.54557 7.45149C7.52145 7.37393 7.46785 7.31125 7.36063 7.18587L7.26302 7.07173C6.88573 6.63054 6.69709 6.40994 6.76292 6.19824C6.82875 5.98653 7.10547 5.92392 7.6589 5.79871L7.80207 5.76631C7.95934 5.73073 8.03797 5.71294 8.10111 5.66501C8.16425 5.61708 8.20474 5.54444 8.28573 5.39915L8.35946 5.26688Z" stroke="#222222"/>
<path d="M14.25 6.75C14.25 9.64949 11.8995 12 9 12C6.1005 12 3.75 9.64949 3.75 6.75C3.75 3.8505 6.1005 1.5 9 1.5C11.8995 1.5 14.25 3.8505 14.25 6.75Z" stroke="#222222"/>
<path d="M5.51333 11.25L5.03568 12.9922C4.56442 14.7111 4.3288 15.5706 4.64323 16.0411C4.75343 16.2059 4.90125 16.3383 5.07279 16.4256C5.56226 16.6749 6.31801 16.2811 7.8295 15.4935C8.33241 15.2314 8.58387 15.1004 8.85107 15.0719C8.95011 15.0614 9.04989 15.0614 9.14893 15.0719C9.41613 15.1004 9.66759 15.2314 10.1705 15.4935C11.682 16.2811 12.4377 16.6749 12.9272 16.4256C13.0987 16.3383 13.2466 16.2059 13.3568 16.0411C13.6712 15.5706 13.4356 14.7111 12.9643 12.9922L12.4867 11.25" stroke="#222222" stroke-linecap="round"/>
</svg>
